# xmcd
#
# Track frame offsets: 
#        183
#        12033
#        22870
#        38983
#        51745
#        63408
#        74208
#        85783
#        104908
#        121133
#        131845
#        147558
#        159933
#        175958
#
# Disc length: 2555 seconds
#
# Revision: 1
# Processed by: cddbd v1.5.2PL0 Copyright (c) Steve Scherf et al.
# Submitted via: ExactAudioCopy v0.99pb5
#
DISCID=ce09f90e
DTITLE=Various Artist - Music On My Mind - 13 - Country and Other Great America
DTITLE=n Dreams
DYEAR=1996
DGENRE=Pop
TTITLE0=Nancy and Frank Sinatra - Somethin' stupid
TTITLE1=Sandy Posey - I take it back
TTITLE2=Nancy Sinatra and Lee Hazlewood - Some velvet morning
TTITLE3=Bob Lind - Elusive butterfly
TTITLE4=Five Americans - Western Union
TTITLE5=Ireen Sheer - Big yellow taxi
TTITLE6=Poppy Family - That's where I went wrong
TTITLE7=Samantha Jones - My way
TTITLE8=Joe Dolan - Unchained melody
TTITLE9=Sommerset - Another lonely night
TTITLE10=Kenny Nolan - I like dreamin'
TTITLE11=Ray Sawyer - (One more year of) Daddy's little girl
TTITLE12=Billie Jo Spears - Blanket on the ground
TTITLE13=Dirt Band - An American dream
EXTD=
EXTT0=
EXTT1=
EXTT2=
EXTT3=
EXTT4=
EXTT5=
EXTT6=
EXTT7=
EXTT8=
EXTT9=
EXTT10=
EXTT11=
EXTT12=
EXTT13=
PLAYORDER=
